<?xml version="1.0" encoding="UTF-8"?>
<svg version="1.1" viewBox="0 0 1881.5 1898.9" xmlns="http://www.w3.org/2000/svg">
 <defs>
  <style>.cls-1 {
        fill: none;
        fill-rule: evenodd;
      }</style>
 </defs>
 <path d="m1139.1 0.0042579c-140.87-0.29737-309.98 14.922-490.49 64.381-278.69 81.16-648.57 339.86-648.57 339.86s225.62 354.02 380.02 644.21c162.08 242.21 172.75 416.72 172.75 416.72s116.37 47.37 244.16 44.418-133.08 76.017-269.97-19.834c-136.89-95.85-96.84-255.22-96.84-255.22s-122.03-155.21-328.78-3.4707c-94.586 90.72-163.69 270.93 10.135 421.01 302.04 294.17 684.04 243.48 684.04 243.48l-0.014-0.014c651.53-64.95 1333.8-564.28 997.11-633.67-72.586-14.454-86.48 0.5567-86.48 0.5567s158.01 27.578-29.502 88.785c-285.86 93.312-142.52 26.046-175.17 7.1895-179.04-282.55-89.296-732.91-26.978-1075.9 20.53-117.85 55.73-238.41 55.73-238.41s-156.36-43.594-391.15-44.09zm-327.06 397.55c31.142 0 63.218 14.158 96.228 42.477 18.063 15.307 38.305 45.156 60.727 89.547 14.948 30.614 33.945 86.102 56.99 166.46l113.98 397.22c26.159 88.785 52.631 159.2 79.414 211.24 27.405 52.809 52.318 92.225 74.74 118.25 22.423 26.787 45.78 45.537 70.07 56.252 24.291 10.715 44.222 16.074 59.793 16.074 16.194 0 30.518-1.5323 42.975-4.5938l0.9356 11.48c-29.897 12.245-59.172 18.369-87.822 18.369-28.651 0-57.3-9.1847-85.951-27.553-28.651-17.603-55.434-42.476-80.348-74.621-53.565-66.585-99.032-167.99-136.4-304.23l-36.436-130.88h-255.99l-64.465 204.35c-3.1142 9.184-4.6699 18.369-4.6699 27.553s3.1134 19.132 9.3418 29.848c6.8513 9.95 17.129 14.926 30.832 14.926h7.4726v11.48h-187.79v-11.48h8.4082c14.948 0 29.585-5.359 43.91-16.074 14.325-11.48 26.159-28.316 35.502-50.512l231.7-681.92c-33.633-58.932-75.363-88.398-125.19-88.398-22.423 0-46.403 5.7404-71.939 17.221l-2.7988-11.496c40.485-20.664 79.411-30.996 116.78-30.996zm106.51 163.02-123.32 388.03h236.37l-73.807-267.49c-14.325-51.279-27.404-91.458-39.238-120.54z" fill="#ff6600" fill-rule="evenodd"/>
</svg>
